<mxfile host="app.diagrams.net" modified="2023-09-04T14:37:00.558Z" agent="Mozilla/5.0 (Windows NT 10.0; Win64; x64) AppleWebKit/537.36 (KHTML, like Gecko) Chrome/116.0.0.0 Safari/537.36" etag="HIqQJE2IxPNePBZGylvE" version="21.7.2" type="github" pages="2">
  <diagram name="Page-1" id="K5QFB6ODwyQS_MXKduE2">
    <mxGraphModel dx="1218" dy="1100" grid="1" gridSize="10" guides="1" tooltips="1" connect="1" arrows="1" fold="1" page="1" pageScale="1" pageWidth="850" pageHeight="1100" math="0" shadow="0">
      <root>
        <mxCell id="0" />
        <mxCell id="1" parent="0" />
        <mxCell id="gqPCX6u2wLN93OPSgh7Q-28" value="" style="rounded=0;whiteSpace=wrap;html=1;fillColor=none;" vertex="1" parent="1">
          <mxGeometry x="245" y="120" width="385" height="840" as="geometry" />
        </mxCell>
        <mxCell id="gqPCX6u2wLN93OPSgh7Q-1" value="Student" style="shape=umlActor;verticalLabelPosition=bottom;verticalAlign=top;html=1;" vertex="1" parent="1">
          <mxGeometry x="130" y="415" width="30" height="60" as="geometry" />
        </mxCell>
        <mxCell id="gqPCX6u2wLN93OPSgh7Q-2" value="Submit SQL queries" style="ellipse;whiteSpace=wrap;html=1;" vertex="1" parent="1">
          <mxGeometry x="385" y="175" width="140" height="70" as="geometry" />
        </mxCell>
        <mxCell id="gqPCX6u2wLN93OPSgh7Q-3" value="View grade" style="ellipse;whiteSpace=wrap;html=1;" vertex="1" parent="1">
          <mxGeometry x="380" y="275" width="140" height="70" as="geometry" />
        </mxCell>
        <mxCell id="gqPCX6u2wLN93OPSgh7Q-7" value="" style="endArrow=none;html=1;rounded=0;entryX=0;entryY=0.5;entryDx=0;entryDy=0;" edge="1" parent="1" source="gqPCX6u2wLN93OPSgh7Q-1" target="gqPCX6u2wLN93OPSgh7Q-2">
          <mxGeometry width="50" height="50" relative="1" as="geometry">
            <mxPoint x="260" y="465" as="sourcePoint" />
            <mxPoint x="310" y="415" as="targetPoint" />
          </mxGeometry>
        </mxCell>
        <mxCell id="gqPCX6u2wLN93OPSgh7Q-8" value="Instructor" style="shape=umlActor;verticalLabelPosition=bottom;verticalAlign=top;html=1;" vertex="1" parent="1">
          <mxGeometry x="690" y="415" width="30" height="60" as="geometry" />
        </mxCell>
        <mxCell id="gqPCX6u2wLN93OPSgh7Q-9" value="" style="endArrow=none;html=1;rounded=0;entryX=0;entryY=0.5;entryDx=0;entryDy=0;" edge="1" parent="1" source="gqPCX6u2wLN93OPSgh7Q-1" target="gqPCX6u2wLN93OPSgh7Q-3">
          <mxGeometry width="50" height="50" relative="1" as="geometry">
            <mxPoint x="220" y="605" as="sourcePoint" />
            <mxPoint x="270" y="555" as="targetPoint" />
          </mxGeometry>
        </mxCell>
        <mxCell id="gqPCX6u2wLN93OPSgh7Q-10" value="" style="endArrow=none;html=1;rounded=0;exitX=1;exitY=0.5;exitDx=0;exitDy=0;" edge="1" parent="1" source="gqPCX6u2wLN93OPSgh7Q-3" target="gqPCX6u2wLN93OPSgh7Q-8">
          <mxGeometry width="50" height="50" relative="1" as="geometry">
            <mxPoint x="570" y="605" as="sourcePoint" />
            <mxPoint x="620" y="555" as="targetPoint" />
          </mxGeometry>
        </mxCell>
        <mxCell id="gqPCX6u2wLN93OPSgh7Q-11" value="Create SQL questions" style="ellipse;whiteSpace=wrap;html=1;" vertex="1" parent="1">
          <mxGeometry x="380" y="365" width="140" height="70" as="geometry" />
        </mxCell>
        <mxCell id="gqPCX6u2wLN93OPSgh7Q-12" value="Admin" style="shape=umlActor;verticalLabelPosition=bottom;verticalAlign=top;html=1;" vertex="1" parent="1">
          <mxGeometry x="130" y="785" width="30" height="60" as="geometry" />
        </mxCell>
        <mxCell id="gqPCX6u2wLN93OPSgh7Q-13" value="Database server" style="shape=umlActor;verticalLabelPosition=bottom;verticalAlign=top;html=1;" vertex="1" parent="1">
          <mxGeometry x="690" y="700" width="30" height="60" as="geometry" />
        </mxCell>
        <mxCell id="gqPCX6u2wLN93OPSgh7Q-14" value="Manage SQL questions" style="ellipse;whiteSpace=wrap;html=1;" vertex="1" parent="1">
          <mxGeometry x="380" y="445" width="140" height="70" as="geometry" />
        </mxCell>
        <mxCell id="gqPCX6u2wLN93OPSgh7Q-15" value="Set grading criteria" style="ellipse;whiteSpace=wrap;html=1;" vertex="1" parent="1">
          <mxGeometry x="385" y="535" width="140" height="70" as="geometry" />
        </mxCell>
        <mxCell id="gqPCX6u2wLN93OPSgh7Q-16" value="User management" style="ellipse;whiteSpace=wrap;html=1;" vertex="1" parent="1">
          <mxGeometry x="385" y="775" width="140" height="70" as="geometry" />
        </mxCell>
        <mxCell id="gqPCX6u2wLN93OPSgh7Q-17" value="System monitoring" style="ellipse;whiteSpace=wrap;html=1;" vertex="1" parent="1">
          <mxGeometry x="385" y="855" width="140" height="70" as="geometry" />
        </mxCell>
        <mxCell id="gqPCX6u2wLN93OPSgh7Q-18" value="Execute queries" style="ellipse;whiteSpace=wrap;html=1;" vertex="1" parent="1">
          <mxGeometry x="385" y="695" width="140" height="70" as="geometry" />
        </mxCell>
        <mxCell id="gqPCX6u2wLN93OPSgh7Q-19" value="Generate reports" style="ellipse;whiteSpace=wrap;html=1;" vertex="1" parent="1">
          <mxGeometry x="385" y="615" width="140" height="70" as="geometry" />
        </mxCell>
        <mxCell id="gqPCX6u2wLN93OPSgh7Q-20" value="" style="endArrow=none;html=1;rounded=0;exitX=1;exitY=0.5;exitDx=0;exitDy=0;" edge="1" parent="1" source="gqPCX6u2wLN93OPSgh7Q-19" target="gqPCX6u2wLN93OPSgh7Q-8">
          <mxGeometry width="50" height="50" relative="1" as="geometry">
            <mxPoint x="260" y="485" as="sourcePoint" />
            <mxPoint x="670" y="495" as="targetPoint" />
          </mxGeometry>
        </mxCell>
        <mxCell id="gqPCX6u2wLN93OPSgh7Q-21" value="" style="endArrow=none;html=1;rounded=0;exitX=1;exitY=0.5;exitDx=0;exitDy=0;entryX=0;entryY=0.3333333333333333;entryDx=0;entryDy=0;entryPerimeter=0;" edge="1" parent="1" source="gqPCX6u2wLN93OPSgh7Q-11" target="gqPCX6u2wLN93OPSgh7Q-8">
          <mxGeometry width="50" height="50" relative="1" as="geometry">
            <mxPoint x="260" y="485" as="sourcePoint" />
            <mxPoint x="310" y="435" as="targetPoint" />
          </mxGeometry>
        </mxCell>
        <mxCell id="gqPCX6u2wLN93OPSgh7Q-22" value="" style="endArrow=none;html=1;rounded=0;exitX=1.019;exitY=0.614;exitDx=0;exitDy=0;exitPerimeter=0;" edge="1" parent="1" source="gqPCX6u2wLN93OPSgh7Q-14" target="gqPCX6u2wLN93OPSgh7Q-8">
          <mxGeometry width="50" height="50" relative="1" as="geometry">
            <mxPoint x="260" y="485" as="sourcePoint" />
            <mxPoint x="310" y="435" as="targetPoint" />
          </mxGeometry>
        </mxCell>
        <mxCell id="gqPCX6u2wLN93OPSgh7Q-23" value="" style="endArrow=none;html=1;rounded=0;exitX=1;exitY=0.5;exitDx=0;exitDy=0;" edge="1" parent="1" source="gqPCX6u2wLN93OPSgh7Q-15" target="gqPCX6u2wLN93OPSgh7Q-8">
          <mxGeometry width="50" height="50" relative="1" as="geometry">
            <mxPoint x="260" y="485" as="sourcePoint" />
            <mxPoint x="310" y="435" as="targetPoint" />
          </mxGeometry>
        </mxCell>
        <mxCell id="gqPCX6u2wLN93OPSgh7Q-24" value="" style="endArrow=none;html=1;rounded=0;exitX=0;exitY=0.605;exitDx=0;exitDy=0;exitPerimeter=0;" edge="1" parent="1" source="gqPCX6u2wLN93OPSgh7Q-16" target="gqPCX6u2wLN93OPSgh7Q-12">
          <mxGeometry width="50" height="50" relative="1" as="geometry">
            <mxPoint x="260" y="485" as="sourcePoint" />
            <mxPoint x="310" y="435" as="targetPoint" />
          </mxGeometry>
        </mxCell>
        <mxCell id="gqPCX6u2wLN93OPSgh7Q-25" value="" style="endArrow=none;html=1;rounded=0;entryX=0;entryY=0.5;entryDx=0;entryDy=0;" edge="1" parent="1" source="gqPCX6u2wLN93OPSgh7Q-12" target="gqPCX6u2wLN93OPSgh7Q-17">
          <mxGeometry width="50" height="50" relative="1" as="geometry">
            <mxPoint x="260" y="485" as="sourcePoint" />
            <mxPoint x="310" y="435" as="targetPoint" />
          </mxGeometry>
        </mxCell>
        <mxCell id="gqPCX6u2wLN93OPSgh7Q-26" value="" style="endArrow=none;html=1;rounded=0;exitX=1;exitY=0.5;exitDx=0;exitDy=0;" edge="1" parent="1" source="gqPCX6u2wLN93OPSgh7Q-18" target="gqPCX6u2wLN93OPSgh7Q-13">
          <mxGeometry width="50" height="50" relative="1" as="geometry">
            <mxPoint x="260" y="485" as="sourcePoint" />
            <mxPoint x="310" y="435" as="targetPoint" />
          </mxGeometry>
        </mxCell>
        <mxCell id="gqPCX6u2wLN93OPSgh7Q-27" value="1. Use Case Diagram" style="text;html=1;strokeColor=none;fillColor=none;align=center;verticalAlign=middle;whiteSpace=wrap;rounded=0;fontStyle=1;fontSize=14;" vertex="1" parent="1">
          <mxGeometry x="40" y="40" width="150" height="30" as="geometry" />
        </mxCell>
        <mxCell id="gqPCX6u2wLN93OPSgh7Q-29" value="SOCOLES SQL grading system" style="text;html=1;strokeColor=none;fillColor=none;align=center;verticalAlign=middle;whiteSpace=wrap;rounded=0;" vertex="1" parent="1">
          <mxGeometry x="337.5" y="130" width="200" height="30" as="geometry" />
        </mxCell>
      </root>
    </mxGraphModel>
  </diagram>
  <diagram id="BKdiOdD2DADcuT4MDQrx" name="Page-2">
    <mxGraphModel dx="1218" dy="1100" grid="1" gridSize="10" guides="1" tooltips="1" connect="1" arrows="1" fold="1" page="1" pageScale="1" pageWidth="850" pageHeight="1100" math="0" shadow="0">
      <root>
        <mxCell id="0" />
        <mxCell id="1" parent="0" />
        <mxCell id="b7tDfNSS2hKUfxKLz1on-4" value="" style="edgeStyle=orthogonalEdgeStyle;rounded=0;orthogonalLoop=1;jettySize=auto;html=1;entryX=0.5;entryY=0;entryDx=0;entryDy=0;" edge="1" parent="1" source="F1yX7iIxj7R-M2cOFu5L-1" target="b7tDfNSS2hKUfxKLz1on-38">
          <mxGeometry relative="1" as="geometry">
            <mxPoint x="425" y="165" as="targetPoint" />
          </mxGeometry>
        </mxCell>
        <mxCell id="F1yX7iIxj7R-M2cOFu5L-1" value="" style="ellipse;html=1;shape=startState;fillColor=#000000;strokeColor=#ff0000;" vertex="1" parent="1">
          <mxGeometry x="255" y="60" width="30" height="30" as="geometry" />
        </mxCell>
        <mxCell id="b7tDfNSS2hKUfxKLz1on-1" value="2. Activity Diagram" style="text;html=1;strokeColor=none;fillColor=none;align=center;verticalAlign=middle;whiteSpace=wrap;rounded=0;fontStyle=1;fontSize=14;" vertex="1" parent="1">
          <mxGeometry x="40" y="40" width="150" height="30" as="geometry" />
        </mxCell>
        <mxCell id="b7tDfNSS2hKUfxKLz1on-41" value="" style="edgeStyle=orthogonalEdgeStyle;rounded=0;orthogonalLoop=1;jettySize=auto;html=1;" edge="1" parent="1" source="b7tDfNSS2hKUfxKLz1on-38" target="b7tDfNSS2hKUfxKLz1on-40">
          <mxGeometry relative="1" as="geometry" />
        </mxCell>
        <mxCell id="b7tDfNSS2hKUfxKLz1on-38" value="Student logs in" style="rounded=1;whiteSpace=wrap;html=1;arcSize=40;fontColor=#000000;fillColor=#ffffc0;strokeColor=#ff0000;" vertex="1" parent="1">
          <mxGeometry x="210" y="170" width="120" height="40" as="geometry" />
        </mxCell>
        <mxCell id="b7tDfNSS2hKUfxKLz1on-47" value="" style="edgeStyle=orthogonalEdgeStyle;rounded=0;orthogonalLoop=1;jettySize=auto;html=1;" edge="1" parent="1" source="b7tDfNSS2hKUfxKLz1on-40" target="b7tDfNSS2hKUfxKLz1on-46">
          <mxGeometry relative="1" as="geometry" />
        </mxCell>
        <mxCell id="b7tDfNSS2hKUfxKLz1on-40" value="View available SQL questions" style="whiteSpace=wrap;html=1;fillColor=#ffffc0;strokeColor=#ff0000;fontColor=#000000;rounded=1;arcSize=40;" vertex="1" parent="1">
          <mxGeometry x="210" y="280" width="120" height="60" as="geometry" />
        </mxCell>
        <mxCell id="b7tDfNSS2hKUfxKLz1on-49" value="" style="edgeStyle=orthogonalEdgeStyle;rounded=0;orthogonalLoop=1;jettySize=auto;html=1;" edge="1" parent="1" source="b7tDfNSS2hKUfxKLz1on-46" target="b7tDfNSS2hKUfxKLz1on-48">
          <mxGeometry relative="1" as="geometry" />
        </mxCell>
        <mxCell id="b7tDfNSS2hKUfxKLz1on-46" value="Select a question to work on" style="whiteSpace=wrap;html=1;fillColor=#ffffc0;strokeColor=#ff0000;fontColor=#000000;rounded=1;arcSize=40;" vertex="1" parent="1">
          <mxGeometry x="210" y="420" width="120" height="60" as="geometry" />
        </mxCell>
        <mxCell id="b7tDfNSS2hKUfxKLz1on-51" value="" style="edgeStyle=orthogonalEdgeStyle;rounded=0;orthogonalLoop=1;jettySize=auto;html=1;" edge="1" parent="1" source="b7tDfNSS2hKUfxKLz1on-48" target="b7tDfNSS2hKUfxKLz1on-50">
          <mxGeometry relative="1" as="geometry" />
        </mxCell>
        <mxCell id="b7tDfNSS2hKUfxKLz1on-56" value="No" style="edgeLabel;html=1;align=center;verticalAlign=middle;resizable=0;points=[];" vertex="1" connectable="0" parent="b7tDfNSS2hKUfxKLz1on-51">
          <mxGeometry x="-0.0074" y="-1" relative="1" as="geometry">
            <mxPoint as="offset" />
          </mxGeometry>
        </mxCell>
        <mxCell id="b7tDfNSS2hKUfxKLz1on-58" style="edgeStyle=orthogonalEdgeStyle;rounded=0;orthogonalLoop=1;jettySize=auto;html=1;entryX=0;entryY=0.5;entryDx=0;entryDy=0;" edge="1" parent="1" source="b7tDfNSS2hKUfxKLz1on-48" target="b7tDfNSS2hKUfxKLz1on-46">
          <mxGeometry relative="1" as="geometry">
            <Array as="points">
              <mxPoint x="190" y="590" />
              <mxPoint x="190" y="450" />
            </Array>
          </mxGeometry>
        </mxCell>
        <mxCell id="b7tDfNSS2hKUfxKLz1on-59" value="Yes" style="edgeLabel;html=1;align=center;verticalAlign=middle;resizable=0;points=[];" vertex="1" connectable="0" parent="b7tDfNSS2hKUfxKLz1on-58">
          <mxGeometry x="-0.0967" y="-1" relative="1" as="geometry">
            <mxPoint as="offset" />
          </mxGeometry>
        </mxCell>
        <mxCell id="b7tDfNSS2hKUfxKLz1on-48" value="More questions?" style="rhombus;whiteSpace=wrap;html=1;fillColor=#ffffc0;strokeColor=#ff0000;fontColor=#000000;rounded=1;arcSize=40;" vertex="1" parent="1">
          <mxGeometry x="230" y="550" width="80" height="80" as="geometry" />
        </mxCell>
        <mxCell id="b7tDfNSS2hKUfxKLz1on-53" value="" style="edgeStyle=orthogonalEdgeStyle;rounded=0;orthogonalLoop=1;jettySize=auto;html=1;" edge="1" parent="1" source="b7tDfNSS2hKUfxKLz1on-50" target="b7tDfNSS2hKUfxKLz1on-52">
          <mxGeometry relative="1" as="geometry" />
        </mxCell>
        <mxCell id="b7tDfNSS2hKUfxKLz1on-50" value="Submit queries for grading" style="whiteSpace=wrap;html=1;fillColor=#ffffc0;strokeColor=#ff0000;fontColor=#000000;rounded=1;arcSize=40;" vertex="1" parent="1">
          <mxGeometry x="210" y="720" width="120" height="60" as="geometry" />
        </mxCell>
        <mxCell id="b7tDfNSS2hKUfxKLz1on-55" value="" style="edgeStyle=orthogonalEdgeStyle;rounded=0;orthogonalLoop=1;jettySize=auto;html=1;" edge="1" parent="1" source="b7tDfNSS2hKUfxKLz1on-52" target="b7tDfNSS2hKUfxKLz1on-54">
          <mxGeometry relative="1" as="geometry" />
        </mxCell>
        <mxCell id="b7tDfNSS2hKUfxKLz1on-57" value="Grade and feedback" style="edgeLabel;html=1;align=center;verticalAlign=middle;resizable=0;points=[];" vertex="1" connectable="0" parent="b7tDfNSS2hKUfxKLz1on-55">
          <mxGeometry x="-0.2083" y="-1" relative="1" as="geometry">
            <mxPoint as="offset" />
          </mxGeometry>
        </mxCell>
        <mxCell id="b7tDfNSS2hKUfxKLz1on-52" value="Grade" style="whiteSpace=wrap;html=1;fillColor=#ffffc0;strokeColor=#ff0000;fontColor=#000000;rounded=1;arcSize=40;" vertex="1" parent="1">
          <mxGeometry x="210" y="860" width="120" height="60" as="geometry" />
        </mxCell>
        <mxCell id="b7tDfNSS2hKUfxKLz1on-61" value="" style="edgeStyle=orthogonalEdgeStyle;rounded=0;orthogonalLoop=1;jettySize=auto;html=1;" edge="1" parent="1" source="b7tDfNSS2hKUfxKLz1on-54" target="b7tDfNSS2hKUfxKLz1on-60">
          <mxGeometry relative="1" as="geometry" />
        </mxCell>
        <mxCell id="b7tDfNSS2hKUfxKLz1on-54" value="Notify student of grading outcome" style="whiteSpace=wrap;html=1;fillColor=#ffffc0;strokeColor=#ff0000;fontColor=#000000;rounded=1;arcSize=40;" vertex="1" parent="1">
          <mxGeometry x="210" y="1000" width="120" height="60" as="geometry" />
        </mxCell>
        <mxCell id="b7tDfNSS2hKUfxKLz1on-63" value="" style="edgeStyle=orthogonalEdgeStyle;rounded=0;orthogonalLoop=1;jettySize=auto;html=1;" edge="1" parent="1" source="b7tDfNSS2hKUfxKLz1on-60" target="b7tDfNSS2hKUfxKLz1on-62">
          <mxGeometry relative="1" as="geometry" />
        </mxCell>
        <mxCell id="b7tDfNSS2hKUfxKLz1on-60" value="Review grade and feedback given" style="whiteSpace=wrap;html=1;fillColor=#ffffc0;strokeColor=#ff0000;fontColor=#000000;rounded=1;arcSize=40;" vertex="1" parent="1">
          <mxGeometry x="410" y="1000" width="120" height="60" as="geometry" />
        </mxCell>
        <mxCell id="b7tDfNSS2hKUfxKLz1on-65" value="" style="edgeStyle=orthogonalEdgeStyle;rounded=0;orthogonalLoop=1;jettySize=auto;html=1;" edge="1" parent="1" source="b7tDfNSS2hKUfxKLz1on-62" target="b7tDfNSS2hKUfxKLz1on-64">
          <mxGeometry relative="1" as="geometry" />
        </mxCell>
        <mxCell id="b7tDfNSS2hKUfxKLz1on-66" value="No" style="edgeLabel;html=1;align=center;verticalAlign=middle;resizable=0;points=[];" vertex="1" connectable="0" parent="b7tDfNSS2hKUfxKLz1on-65">
          <mxGeometry x="-0.0593" relative="1" as="geometry">
            <mxPoint as="offset" />
          </mxGeometry>
        </mxCell>
        <mxCell id="b7tDfNSS2hKUfxKLz1on-71" value="" style="edgeStyle=orthogonalEdgeStyle;rounded=0;orthogonalLoop=1;jettySize=auto;html=1;" edge="1" parent="1" source="b7tDfNSS2hKUfxKLz1on-62" target="b7tDfNSS2hKUfxKLz1on-70">
          <mxGeometry relative="1" as="geometry" />
        </mxCell>
        <mxCell id="b7tDfNSS2hKUfxKLz1on-62" value="Satisfied" style="rhombus;whiteSpace=wrap;html=1;fillColor=#ffffc0;strokeColor=#ff0000;fontColor=#000000;rounded=1;arcSize=40;" vertex="1" parent="1">
          <mxGeometry x="430" y="850" width="80" height="80" as="geometry" />
        </mxCell>
        <mxCell id="b7tDfNSS2hKUfxKLz1on-68" value="" style="edgeStyle=orthogonalEdgeStyle;rounded=0;orthogonalLoop=1;jettySize=auto;html=1;" edge="1" parent="1" source="b7tDfNSS2hKUfxKLz1on-64" target="b7tDfNSS2hKUfxKLz1on-67">
          <mxGeometry relative="1" as="geometry" />
        </mxCell>
        <mxCell id="b7tDfNSS2hKUfxKLz1on-64" value="Write a complaint" style="whiteSpace=wrap;html=1;fillColor=#ffffc0;strokeColor=#ff0000;fontColor=#000000;rounded=1;arcSize=40;" vertex="1" parent="1">
          <mxGeometry x="410" y="700" width="120" height="60" as="geometry" />
        </mxCell>
        <mxCell id="b7tDfNSS2hKUfxKLz1on-69" style="edgeStyle=orthogonalEdgeStyle;rounded=0;orthogonalLoop=1;jettySize=auto;html=1;entryX=1;entryY=0.25;entryDx=0;entryDy=0;" edge="1" parent="1" source="b7tDfNSS2hKUfxKLz1on-67" target="b7tDfNSS2hKUfxKLz1on-54">
          <mxGeometry relative="1" as="geometry" />
        </mxCell>
        <mxCell id="b7tDfNSS2hKUfxKLz1on-67" value="Grade manually" style="whiteSpace=wrap;html=1;fillColor=#ffffc0;strokeColor=#ff0000;fontColor=#000000;rounded=1;arcSize=40;" vertex="1" parent="1">
          <mxGeometry x="410" y="560" width="120" height="60" as="geometry" />
        </mxCell>
        <mxCell id="b7tDfNSS2hKUfxKLz1on-73" value="" style="edgeStyle=orthogonalEdgeStyle;rounded=0;orthogonalLoop=1;jettySize=auto;html=1;" edge="1" parent="1" source="b7tDfNSS2hKUfxKLz1on-70" target="b7tDfNSS2hKUfxKLz1on-72">
          <mxGeometry relative="1" as="geometry" />
        </mxCell>
        <mxCell id="b7tDfNSS2hKUfxKLz1on-70" value="Review grading process" style="whiteSpace=wrap;html=1;fillColor=#ffffc0;strokeColor=#ff0000;fontColor=#000000;rounded=1;arcSize=40;" vertex="1" parent="1">
          <mxGeometry x="570" y="860" width="120" height="60" as="geometry" />
        </mxCell>
        <mxCell id="b7tDfNSS2hKUfxKLz1on-72" value="Save review" style="whiteSpace=wrap;html=1;fillColor=#ffffc0;strokeColor=#ff0000;fontColor=#000000;rounded=1;arcSize=40;" vertex="1" parent="1">
          <mxGeometry x="570" y="720" width="120" height="60" as="geometry" />
        </mxCell>
      </root>
    </mxGraphModel>
  </diagram>
</mxfile>
